<svg id="Camada_1" data-name="Camada 1" xmlns="http://www.w3.org/2000/svg" viewBox="0 0 1036.42 469.26"><defs><style>.cls-1,.cls-2{fill:#16120e;}.cls-1,.cls-3,.cls-4{fill-rule:evenodd;}.cls-4{fill:#e20613;}</style></defs><path class="cls-1" d="M110,753.94l10.53,3.34q-2.43,8.81-8.05,13.08t-14.29,4.27a23.14,23.14,0,0,1-17.61-7.32q-6.9-7.3-6.9-20,0-13.44,6.94-20.86T98.83,719q9.87,0,16,5.83a21.28,21.28,0,0,1,5.5,9.91l-10.75,2.57a11.1,11.1,0,0,0-11.33-9,12.24,12.24,0,0,0-9.71,4.3q-3.72,4.29-3.72,13.9,0,10.2,3.67,14.52a11.9,11.9,0,0,0,9.54,4.33,10.89,10.89,0,0,0,7.45-2.75C107.58,760.77,109.08,757.88,110,753.94Z" transform="translate(-21.79 -305.37)"/><polygon class="cls-1" points="114.04 468.35 114.04 414.57 153.92 414.57 153.92 423.67 124.9 423.67 124.9 435.59 151.9 435.59 151.9 444.65 124.9 444.65 124.9 459.29 154.94 459.29 154.94 468.35 114.04 468.35"/><polygon class="cls-1" points="170.27 468.35 170.27 414.57 180.84 414.57 202.85 450.48 202.85 414.57 212.94 414.57 212.94 468.35 202.04 468.35 180.36 433.28 180.36 468.35 170.27 468.35"/><polygon class="cls-1" points="242.53 468.35 242.53 423.67 226.58 423.67 226.58 414.57 269.31 414.57 269.31 423.67 253.39 423.67 253.39 468.35 242.53 468.35"/><path class="cls-1" d="M315,742.68h8q7.81,0,9.75-.66a5.89,5.89,0,0,0,3.05-2.27,7,7,0,0,0,1.1-4,6.46,6.46,0,0,0-1.45-4.38,6.6,6.6,0,0,0-4.09-2.11c-.88-.12-3.52-.19-7.92-.19H315v13.65Zm-10.86,31V719.94H327q8.63,0,12.53,1.45a12.31,12.31,0,0,1,6.25,5.15,15.55,15.55,0,0,1,2.35,8.47,14.37,14.37,0,0,1-3.56,10Q341,749,333.94,750a25.32,25.32,0,0,1,5.82,4.51,61.18,61.18,0,0,1,6.18,8.73l6.57,10.5h-13L331.67,762a77.65,77.65,0,0,0-5.72-7.9,8.42,8.42,0,0,0-3.27-2.24,18.06,18.06,0,0,0-5.47-.6H315v22.45Z" transform="translate(-21.79 -305.37)"/><path class="cls-1" d="M373.37,746.79q0,9.13,4.22,13.85a14.51,14.51,0,0,0,21.37,0q4.16-4.67,4.16-14t-4.05-13.79a15,15,0,0,0-21.59,0q-4.11,4.61-4.11,13.89Zm-11.19.37a34.21,34.21,0,0,1,2.46-13.8,25.49,25.49,0,0,1,5-7.37,21.07,21.07,0,0,1,7-4.84A29.48,29.48,0,0,1,388.19,719q11.88,0,19,7.37t7.14,20.51q0,13-7.08,20.38t-18.93,7.35q-12,0-19.08-7.32T362.18,747.16Z" transform="translate(-21.79 -305.37)"/><path class="cls-1" d="M481.43,752.44l-7.42-20-7.26,20Zm20,21.28H489.61l-4.7-12.22h-21.5L459,773.72H447.46l21-53.78h11.47Z" transform="translate(-21.79 -305.37)"/><path class="cls-1" d="M513.11,719.94H524v29.13a59.85,59.85,0,0,0,.41,9,8.68,8.68,0,0,0,3.32,5.3,11.55,11.55,0,0,0,7.17,2q4.62,0,7-1.89a7.43,7.43,0,0,0,2.82-4.64,60.06,60.06,0,0,0,.48-9.13V719.94H556v28.24q0,9.69-.88,13.69a15.21,15.21,0,0,1-3.25,6.75,16.5,16.5,0,0,1-6.33,4.38,27.48,27.48,0,0,1-10.34,1.63q-7.71,0-11.68-1.78a16.57,16.57,0,0,1-6.3-4.62,14.78,14.78,0,0,1-3-6,65.18,65.18,0,0,1-1.07-13.65Z" transform="translate(-21.79 -305.37)"/><polygon class="cls-1" points="563.77 468.35 563.77 423.67 547.81 423.67 547.81 414.57 590.54 414.57 590.54 423.67 574.62 423.67 574.62 468.35 563.77 468.35"/><path class="cls-1" d="M633,746.79q0,9.13,4.22,13.85a14.51,14.51,0,0,0,21.37,0q4.15-4.67,4.16-14t-4.05-13.79a15,15,0,0,0-21.59,0Q633,737.51,633,746.79Zm-11.19.37a34.21,34.21,0,0,1,2.46-13.8,25.49,25.49,0,0,1,5-7.37,21.07,21.07,0,0,1,7-4.84A29.48,29.48,0,0,1,647.8,719q11.88,0,19,7.37T674,746.9q0,13-7.08,20.38T648,774.63q-12,0-19.08-7.32T621.79,747.16Z" transform="translate(-21.79 -305.37)"/><polygon class="cls-1" points="666.5 468.35 666.5 414.57 682.75 414.57 692.51 451.25 702.15 414.57 718.44 414.57 718.44 468.35 708.36 468.35 708.36 426.01 697.68 468.35 687.23 468.35 676.59 426.01 676.59 468.35 666.5 468.35"/><path class="cls-1" d="M766,746.79q0,9.13,4.22,13.85a14.51,14.51,0,0,0,21.37,0q4.15-4.67,4.16-14t-4-13.79a15,15,0,0,0-21.59,0Q766,737.51,766,746.79Zm-11.19.37a34.21,34.21,0,0,1,2.46-13.8,25.49,25.49,0,0,1,5-7.37,21.07,21.07,0,0,1,7-4.84A29.48,29.48,0,0,1,780.84,719q11.88,0,19,7.37T807,746.9q0,13-7.07,20.38T781,774.63q-12,0-19.08-7.32T754.83,747.16Z" transform="translate(-21.79 -305.37)"/><polygon class="cls-1" points="811.79 468.35 811.79 423.67 795.83 423.67 795.83 414.57 838.57 414.57 838.57 423.67 822.65 423.67 822.65 468.35 811.79 468.35"/><rect class="cls-2" x="851.26" y="414.57" width="10.86" height="53.78"/><polygon class="cls-1" points="892.19 468.35 872.97 414.57 884.75 414.57 898.35 454.37 911.52 414.57 923.04 414.57 903.78 468.35 892.19 468.35"/><path class="cls-1" d="M965.37,746.79q0,9.13,4.22,13.85a14.49,14.49,0,0,0,21.36,0q4.17-4.67,4.16-14t-4.05-13.79a15,15,0,0,0-21.59,0q-4.1,4.61-4.1,13.89Zm-11.19.37a34.21,34.21,0,0,1,2.46-13.8,25.49,25.49,0,0,1,5-7.37,21.07,21.07,0,0,1,7-4.84A29.48,29.48,0,0,1,980.19,719q11.88,0,19,7.37t7.14,20.51q0,13-7.08,20.38t-18.93,7.35q-12,0-19.07-7.32T954.18,747.16Z" transform="translate(-21.79 -305.37)"/><path class="cls-1" d="M160,583.19l53.29,16.15q-5.35,22.5-16.94,37.59a72.88,72.88,0,0,1-28.66,22.78q-17.1,7.66-43.55,7.68c-21.43,0-38.87-3.13-52.47-9.34S46.43,640.8,36.58,625.11s-14.71-35.54-14.79-59.76v-1q.12-48.69,26-74.94,26-26.29,73.53-26.32,37.17,0,58.48,15.09t31.59,46.44l-53.57,11.91q-2.82-9-5.9-13.11a35.31,35.31,0,0,0-12.51-10.72,35.69,35.69,0,0,0-16.53-3.78q-20.75,0-31.73,16.66-8.31,12.36-8.33,38.84c0,21.91,3.29,36.86,9.93,45s15.94,12.15,27.93,12.15c11.64,0,20.42-3.26,26.38-9.85S157.29,595.65,160,583.19Z" transform="translate(-21.79 -305.37)"/><path class="cls-1" d="M514.28,476.64H469.82v-20q-9.93,12.38-20,17.62t-24.8,5.26c-13.08,0-23.29-3.9-30.74-11.76s-11.13-19.89-11.13-36.2V352.49H431v68.42q0,11.65,4.31,16.62t12.07,4.9a17.31,17.31,0,0,0,13.88-6.53q5.38-6.58,5.38-23.56V352.49h47.61V476.64Zm-217-65.3-18.7-61.56-18.77,61.56Zm11.2,37.08h-60l-8.61,28.22h-54l64.47-171.27h57.93l64.18,171.27H317Z" transform="translate(-21.79 -305.37)"/><polygon class="cls-1" points="503.36 47.05 691.32 47.05 691.32 125.12 628.2 125.12 628.2 362.85 566.47 362.85 566.47 125.12 503.36 125.12 503.36 47.05"/><path class="cls-1" d="M660.68,526.78h50.69v23q7.35-15,15.1-20.68t19.23-5.62q12,0,26.25,7.48L755.17,569.4c-6.39-2.68-11.47-4-15.19-4a18.76,18.76,0,0,0-16.5,8.79q-8.37,12.39-8.39,46.35V668H660.68Z" transform="translate(-21.79 -305.37)"/><path class="cls-3" d="M791.38,337.34l-19.14,10.35c-13-8.63-13.36-17.85-28.58-1.14-16.09,17.66-3.35,17.23,5,28.6l-8,20.36c-18.32.43-22.14-2.47-22.5,17.45-.37,20.15,5.07,16.59,22.39,18.12,1.71,8.26,4.5,14.07,6.75,20.91-10.08,11.35-20.88,9.91-6.32,27.64,3.5,4.27,6.87,10.54,14,9.79,6-.64,9.94-7,14.86-9.29L788.33,491l-1.54,12.56,15.2-17c3.33-3.74,11.56-12.5,14.43-17.52-.3-.16-.76-.66-.92-.39,0,.08-15.55-3.52-25.17-10.42a55.57,55.57,0,0,1-17.16-20.68c-18.49-40.7,17.8-87.24,63.66-74.35a54.71,54.71,0,0,1,23.48,14.12c10.84,11,10.69,18.92,14.38,23.6l20.78-23.31c2.68-2.95,4.18-5.77,6.8-8.24l-9.56,2.24c-4.39-7.14-8.79-11.38-13.31-17.22,6-15.81,16.13-16.27-4.2-28.58-15-9.06-16.27-6.92-26.28,10l-22.22-4.38c-2-17-2-22.33-20.93-19.2C784.64,315.74,791.39,319.65,791.38,337.34Z" transform="translate(-21.79 -305.37)"/><path class="cls-4" d="M891.69,389.62c-1.5,1.83-2.38,3.54-3.59,5-9.56,11.66-12.49,9.64-12.62,20.67-.17,14.64-4.79,25.36-14.08,35.6-19.94,22-30.77,10.22-42.79,24.24-1.59,1.86-2.24,3-3.74,4.87-5.14,6.26-25,27.47-26.37,31.63,4.59,3.59,17.22,7.64,25,6.23,9.37-1.69,6.76-11.21,10.78-19.71l21.12-3.38c9.28,10.13,4.71,23,26,11.17,20.11-11.16,12.37-11.25,5.69-28.36,3.86-5.44,9.59-9.89,13.82-16.64,11.4,1.74,20,11.9,26.1-4.49l4-8.13c1.64-16.66-1.35-15.08-16.56-20.65l-.08-21.95c15.36-9.61,23.88-.55,14.65-27.43-2.58-7.5-.94-5.77-6.45-10.06C908.59,369.19,894.86,385.75,891.69,389.62Z" transform="translate(-21.79 -305.37)"/><path class="cls-3" d="M907,607.24c-12,73.75-123.58,57.46-111.84-18C799.4,562,826.61,537.65,860.3,543c27.25,4.32,52.13,31,46.71,64.25Zm-84.38-79.89-17.86,9.28c-4.86-4.16-8.07-9-17-9.16-6.18,3.45-14.65,12.62-16.1,20.64,2.76,8,6.92,9.27,11.21,13.52l-6.92,18.62c-4.44.79-30.82-5.29-19.22,30.91,7.79,3.21,9.48,1.5,18.95,3.16l6.43,20.6c-18,9-12.9,21.55-.24,30.62,3.49,2.5,6,3.21,11,1l10.08-7.21c4.85,3,12.48,6.93,17,10.4-.27,7.19-2.85,11.12-.41,17,4.27,7,18.53,8.48,27.59,6.75,4.23-6.86,2.83-8.87,6.06-17.47l20.79-3.1a40,40,0,0,0,7.76,13.91c10.43,1.06,22-6,26.09-12,.85-8.14-2-11-5.31-16.89,2.2-4.4,8-10.27,11.95-15.47,9.21.06,15.17,7.34,21.73.16,4.34-4.75,7.77-17,7.15-24.16-5.74-4.39-9-5.4-16-7.26l.65-20.85c7.57-4.6,16.31-3,16.4-13.36.07-6.43-4.11-16.55-8.83-21.12-9-2.28-11.5,1.37-19.71,2.58-2.47-6.35-7.29-11-11.13-15.41,2.56-9.13,6.79-6.41,6.07-18.7-3.28-4.12-13-10.53-18-12-10.44-3.06-11.4,6.42-17.23,12.61L856,521.8c-4.71-15.07.08-21-20.09-18C816.83,506.64,822.37,510.92,822.63,527.35Z" transform="translate(-21.79 -305.37)"/><path class="cls-3" d="M231.07,618.93c-.81,9.26,0,13,9.1,22.28,8.89,9.11,15.3-1,22.24-4.78,6.33,3.64,9,6.42,16.73,8.81-.51,8.78-2.55,11.88-.33,20,29.76,14.16,29.13-1,32.26-12.66l20.71-3.15A29.73,29.73,0,0,0,339.1,663c10.38,1.27,20.48-5,25.14-11.21,1.75-10.32-2.09-9.73-5.16-18.08,4.05-4.28,8.34-10.82,13.39-14.43,6.35,1.7,13.81,6.79,19.49,1.09,3.75-3.77,7.81-16.54,6.46-22.79-3.89-4.74-7.37-5.93-15.09-7.9l.61-20c7.05-4.8,10-2,15.57-9.45,1.64-8.35-3.16-19.21-7.72-24.41-7.2-1.67-12,.82-17.68,2.5-5.25-4.54-6.12-8.81-13.1-14,2.79-8.9,6.36-8.19,6.42-19.24-3.55-3.38-12.26-10.28-17.32-11.61-11-2.87-11.6,6.51-17.06,12.84l-18.75-3.66-4.71-17.41c-8.84-1.74-20.87-.16-27.51,3.76-2.8,8.71-.2,10.3-.75,19-6.4,3.47-10.55,4-14.91,9.17-16.15-6.62-10.55-17.9-28.58,0-13.8,13.7.91,19.28,5.26,24.55l-6.82,18.06c-9.53,1.06-11.55-.4-18.69,2.93-11,34.34,13.37,29,18.68,29.74l5.78,20.23-11,6.27Zm23.61-34.51c-3.49-32,19.23-58.32,47.73-61.41,72.48-7.87,85.19,98.77,14.2,109C284.78,636.58,257.69,612,254.68,584.42Z" transform="translate(-21.79 -305.37)"/><polygon class="cls-1" points="1036.42 322.06 982.04 322.06 982.04 210.51 939.1 210.51 939.1 322.06 939.1 364.99 982.04 364.99 1036.42 364.99 1036.42 322.06"/><path class="cls-1" d="M415.57,524.72h51.17v23.33q11.44-14.35,23.14-20.47c7.83-4.1,17.3-6.17,28.53-6.17,15.19,0,27,4.51,35.62,13.57s12.84,23,12.84,41.92V668H511.65V589.19c0-9-1.66-15.37-5-19.1s-8-5.61-13.94-5.61A19.83,19.83,0,0,0,476.67,572c-4.09,5.07-6.16,14.09-6.16,27.15V668H415.57Z" transform="translate(-21.79 -305.37)"/></svg>